<svg id="Layer_1" data-name="Layer 1" xmlns="http://www.w3.org/2000/svg" width="200" height="200" viewBox="0 0 200 200">
  <circle cx="100" cy="100" r="95" style="fill: #fff"/>
  <g>
    <path d="M130.41,41.36A24.35,24.35,0,0,0,106,64.86l8.4.31a16,16,0,1,1,16,16.64v8.4a24.43,24.43,0,1,0,0-48.85Z"/>
    <path d="M114.84,118.11H100.31L84,64.34a13.37,13.37,0,0,0-6.63-8L49,41.74l-3.85,7.47,28.4,14.64A4.87,4.87,0,0,1,76,66.77l15.54,51.34H76.4V75.38H68v68a18.27,18.27,0,0,0,18.25,18.25H105a18.27,18.27,0,0,0,18.25-18.25v-68h-8.41Z"/>
  </g>
</svg>
