<svg id="Layer_1" data-name="Layer 1" xmlns="http://www.w3.org/2000/svg" width="200" height="200" viewBox="0 0 200 200">
  <path d="M171.48,118.49V57.78h10.3V26.85H18.22V57.78h10.3v84.44H18.22v30.93H181.78V142.22h-10.3V118.49Zm-9.83-14.77-8.44,8.43v-8.43Zm-8.44-7.44V86.85l9.43,9.43ZM157.58,124H166v8.43Zm5.06,12.8h-9.43v-9.44Zm-6.06-20.24,9.43-9.43v9.43Zm1-33H166v8.44Zm-1-7.44L166,66.61V76Zm-3.37-4.36V63.24h8.44ZM42.42,83.48,34,91.92V83.48ZM34,76V66.61L43.42,76ZM42.42,124,34,132.39V124ZM34,116.52v-9.43l9.43,9.43Zm12.8,10.8v9.44H37.36Zm-8.44-23.6h8.44v8.43Zm-1-7.44,9.43-9.43v9.43Zm1-33h8.44v8.44Zm13.91,79v-24.3l.14-.15-.14-.15V77.45l.14-.15-.14-.15V57.78h16v5.29a13.1,13.1,0,1,0,5.46,0V57.78H97.27v5.29a13.1,13.1,0,1,0,5.46,0V57.78h23.58v5.29a13.1,13.1,0,1,0,5.46,0V57.78h16V77.15l-.14.15.14.15v40.17l-.14.15.14.15v24.3Zm18.7-74a7.64,7.64,0,1,1-7.64,7.64A7.65,7.65,0,0,1,71,68.24Zm29,0a7.64,7.64,0,1,1-7.64,7.64A7.65,7.65,0,0,1,100,68.24Zm29,0a7.64,7.64,0,1,1-7.64,7.64A7.65,7.65,0,0,1,129,68.24Z"/>
</svg>
