<svg id="Layer_1" data-name="Layer 1" xmlns="http://www.w3.org/2000/svg" width="200" height="200" viewBox="0 0 200 200">
  <circle cx="100" cy="100" r="95" style="fill: #fff"/>
  <path d="M148.43,115.81V74.68h7v-21H44.59v21h7v57.21h-7v21H155.41v-21h-7V115.81Zm-6.66-10-5.72,5.72V105.8Zm-5.72-5v-6.4l6.39,6.4Zm3,18.75h5.72v5.71Zm3.43,8.67h-6.39V121.8Zm-4.1-13.71,6.39-6.39v6.39ZM139,92.09h5.72v5.72Zm-.67-5,6.39-6.39v6.39Zm-2.29-3V78.38h5.72ZM61,92.09l-5.72,5.72V92.09Zm-5.72-5V80.66l6.39,6.39ZM61,119.52l-5.72,5.71v-5.71Zm-5.72-5v-6.39l6.39,6.39ZM64,121.8v6.39H57.56Zm-5.72-16H64v5.72Zm-.67-5L64,94.37v6.4Zm.67-22.39H64V84.1Zm9.42,53.51V115.43l.1-.1-.1-.11V88l.1-.1-.1-.1V74.68H78.47v3.58a8.88,8.88,0,1,0,3.71,0V74.68h16v3.58a8.88,8.88,0,1,0,3.7,0V74.68h16v3.58a8.88,8.88,0,1,0,3.71,0V74.68h10.82V87.8l-.1.1.1.1v27.22l-.1.11.1.1v16.46ZM80.32,81.77a5.18,5.18,0,1,1-5.17,5.17A5.18,5.18,0,0,1,80.32,81.77Zm19.68,0a5.18,5.18,0,1,1-5.17,5.17A5.18,5.18,0,0,1,100,81.77Zm19.68,0a5.18,5.18,0,1,1-5.18,5.17A5.18,5.18,0,0,1,119.68,81.77Z"/>
</svg>
