<svg id="Layer_1" data-name="Layer 1" xmlns="http://www.w3.org/2000/svg" width="200" height="200" viewBox="0 0 200 200">
  <g>
    <path d="M55.88,117.47A18.51,18.51,0,1,0,74.4,136,18.51,18.51,0,0,0,55.88,117.47Zm0,25.24A6.73,6.73,0,1,1,62.62,136,6.73,6.73,0,0,1,55.88,142.71Z"/>
    <path d="M138.4,117.47A18.51,18.51,0,1,0,156.91,136,18.51,18.51,0,0,0,138.4,117.47Zm0,25.24a6.73,6.73,0,1,1,6.73-6.73A6.73,6.73,0,0,1,138.4,142.71Z"/>
    <path d="M178.22,45.51H26.58a7.78,7.78,0,0,0-7.79,7.78v9.94A7.78,7.78,0,0,0,26.58,71H67.32v1.86l-5.15,0H34.37A12.77,12.77,0,0,0,21.85,83.18l-7.69,38.26a8.74,8.74,0,0,0,0,3.53l1.55,7.45A4.46,4.46,0,0,0,20.11,136H33.62a22.27,22.27,0,1,1,44.53,0h38a22.27,22.27,0,1,1,44.53,0h6.46a5.52,5.52,0,0,0,5.53-5.53V115.3H179a7,7,0,0,0,7-7v-55A7.78,7.78,0,0,0,178.22,45.51ZM37.83,65.17a6.29,6.29,0,1,1,6.29-6.29A6.29,6.29,0,0,1,37.83,65.17Zm-10.31,43.1h-2l5.84-21.72H49.24A21.72,21.72,0,0,1,27.52,108.27Zm87.67,5.65A12.23,12.23,0,0,1,103,126.14H93.5a12.23,12.23,0,0,1-12.22-12.22V84.48A12.23,12.23,0,0,1,93.5,72.26H103a12.23,12.23,0,0,1,12.22,12.22Zm41.32-21.83H136.67a10,10,0,0,1,0-20h19.84a10,10,0,1,1,0,20Z"/>
    <rect x="85.04" y="76.01" width="26.39" height="46.37" rx="8.46"/>
  </g>
</svg>
