<svg id="Layer_1" data-name="Layer 1" xmlns="http://www.w3.org/2000/svg" width="200" height="200" viewBox="0 0 200 200">
  <circle cx="100" cy="100" r="95" style="fill: #fff"/>
  <g>
    <path d="M67.9,118.34a13.28,13.28,0,1,0,13.28,13.28A13.28,13.28,0,0,0,67.9,118.34Zm0,18.1a4.83,4.83,0,1,1,4.83-4.82A4.82,4.82,0,0,1,67.9,136.44Z"/>
    <path d="M127.09,118.34a13.28,13.28,0,1,0,13.28,13.28A13.27,13.27,0,0,0,127.09,118.34Zm0,18.1a4.83,4.83,0,1,1,4.83-4.82A4.82,4.82,0,0,1,127.09,136.44Z"/>
    <path d="M155.66,66.72H46.88a5.58,5.58,0,0,0-5.59,5.58v7.13A5.58,5.58,0,0,0,46.88,85H76.11v1.33l-3.7,0H52.47a9.16,9.16,0,0,0-9,7.36L38,121.19a6.48,6.48,0,0,0,0,2.52l1.12,5.35a3.21,3.21,0,0,0,3.14,2.56h9.69a16,16,0,1,1,31.95,0h27.24a16,16,0,1,1,31.95,0h4.63a4,4,0,0,0,4-4V116.78h4.52a5,5,0,0,0,5.05-5V72.3A5.58,5.58,0,0,0,155.66,66.72ZM55,80.82a4.51,4.51,0,1,1,4.51-4.51A4.51,4.51,0,0,1,55,80.82Zm-7.39,30.91H46.11l4.2-15.57H63.13A15.57,15.57,0,0,1,47.56,111.73Zm62.88,4.06a8.77,8.77,0,0,1-8.76,8.76H94.89a8.77,8.77,0,0,1-8.77-8.76V94.67a8.78,8.78,0,0,1,8.77-8.77h6.79a8.78,8.78,0,0,1,8.76,8.77Zm29.65-15.66H125.85a7.18,7.18,0,0,1,0-14.35h14.24a7.18,7.18,0,1,1,0,14.35Z"/>
    <rect x="88.81" y="88.6" width="18.93" height="33.26" rx="6.07"/>
  </g>
</svg>
