<svg id="Layer_1" data-name="Layer 1" xmlns="http://www.w3.org/2000/svg" width="200" height="200" viewBox="0 0 200 200">
  <circle cx="100" cy="100" r="95" style="fill: #fff"/>
  <path d="M153.45,92.59c11.82-11.82,14.22-28.59,5.36-37.45s-25.62-6.46-37.45,5.37c-9.64,9.64-13,22.58-9.13,31.83l-9.45,9.46L88.94,88a17.54,17.54,0,0,0-3.76-19.2L60.66,44.24,57.1,47.8,77,67.72a2.6,2.6,0,1,1-3.68,3.68L53.43,51.48,49.92,55,69.83,74.91a2.6,2.6,0,1,1-3.67,3.67L46.24,58.66l-3.51,3.52L62.65,82.09A2.6,2.6,0,1,1,59,85.77L39.05,65.85l-3.21,3.21L60.36,93.58a17.56,17.56,0,0,0,19.2,3.77l13.83,13.83L60.14,144.43a6.64,6.64,0,0,0,9.39,9.38l33.25-33.25L136,153.81a6.63,6.63,0,0,0,9.38-9.38l-33.25-33.25,9.46-9.46C130.87,105.61,143.8,102.24,153.45,92.59Z"/>
</svg>
