<svg id="Layer_1" data-name="Layer 1" xmlns="http://www.w3.org/2000/svg" width="200" height="200" viewBox="0 0 200 200">
  <path d="M173.28,89.84c16.21-16.21,19.51-39.2,7.36-51.35s-35.14-8.85-51.35,7.36c-13.23,13.23-17.85,31-12.52,43.64l-13,13-19-19a24.05,24.05,0,0,0-5.16-26.33L46.06,23.55l-4.88,4.88L68.49,55.74a3.56,3.56,0,1,1-5,5L36.14,33.47l-4.81,4.81L58.64,65.59a3.56,3.56,0,1,1-5,5L26.29,43.32l-4.82,4.82L48.78,75.45a3.56,3.56,0,1,1-5,5L16.44,53.18,12,57.58,45.65,91.2A24.05,24.05,0,0,0,72,96.36l19,19L45.35,160.92a9.09,9.09,0,0,0,12.86,12.86l45.6-45.59,45.59,45.59a9.09,9.09,0,0,0,12.86-12.86l-45.59-45.59,13-13C142.32,107.7,160.06,103.07,173.28,89.84Z"/>
</svg>
