<svg id="Layer_1" data-name="Layer 1" xmlns="http://www.w3.org/2000/svg" width="200" height="200" viewBox="0 0 200 200">
  <g>
    <path d="M184.83,44a4.93,4.93,0,0,0-5.94,3.65l-.35,1.45-46.7,29a1.87,1.87,0,0,0,1.21,3.44c-2.12,5.56-9.65,22.39-26,32a47.88,47.88,0,0,0,16.23,3.11h19.07c11.83-4.82,19.89-13.51,25.09-21.25l-13.11,54.77a4.93,4.93,0,0,0,3.65,5.94,4.58,4.58,0,0,0,1.15.14,5,5,0,0,0,4.8-3.79L188.48,49.89A4.92,4.92,0,0,0,184.83,44Zm-48.47,35.7L172.6,57.14,153.45,78.46a1.85,1.85,0,0,0-.46,1.19Zm21,0,18.85-21-5,21Z"/>
    <path d="M72.56,81.4a1.83,1.83,0,0,0,1-.76,1.87,1.87,0,0,0-.6-2.58L22.56,46.78a1.88,1.88,0,0,0-1.77-.09,4.93,4.93,0,0,0-9.27,3.2L36,152.4a5,5,0,0,0,4.8,3.79,4.58,4.58,0,0,0,1.15-.14,4.93,4.93,0,0,0,3.65-5.94l-16.51-69a1.86,1.86,0,0,0,1.14.4,1.68,1.68,0,0,0,.5-.07l.12,0c3,7.8,17,38.95,52,38.95h41.66C89.51,120.35,75.51,89.2,72.56,81.4ZM32.13,79.65a1.75,1.75,0,0,0-.06-.5L25.8,56.61l22.56,23Zm20.71,0a1.86,1.86,0,0,0-.53-1.3L30.61,56.18,68.4,79.65Z"/>
  </g>
</svg>
