<svg id="Layer_1" data-name="Layer 1" xmlns="http://www.w3.org/2000/svg" width="200" height="200" viewBox="0 0 200 200">
  <circle cx="100" cy="100" r="95" style="fill: #fff"/>
  <g>
    <path d="M162.84,60.67a3.67,3.67,0,0,0-4.43,2.72l-.26,1.08L123.31,86.12a1.39,1.39,0,0,0-.45,1.91,1.41,1.41,0,0,0,1.36.65c-1.59,4.14-7.2,16.7-19.38,23.85A35.52,35.52,0,0,0,117,114.85h14.23C140,111.26,146,104.78,149.89,99l-9.78,40.86a3.68,3.68,0,0,0,2.73,4.43,3.53,3.53,0,0,0,.85.1,3.67,3.67,0,0,0,3.58-2.82l18.3-76.47A3.68,3.68,0,0,0,162.84,60.67ZM126.68,87.3l27-16.79-14.28,15.9a1.36,1.36,0,0,0-.34.89Zm15.7,0,14.05-15.65L152.69,87.3Z"/>
    <path d="M79.09,88.61a1.41,1.41,0,0,0,.72-.58,1.37,1.37,0,0,0-.45-1.91L41.8,62.78a1.41,1.41,0,0,0-1.32-.07,3.68,3.68,0,0,0-6.92,2.39l18.29,76.47A3.68,3.68,0,0,0,59,139.86L46.7,88.39a1.35,1.35,0,0,0,.85.3,1.57,1.57,0,0,0,.37,0l.09,0c2.21,5.81,12.65,29.05,38.76,29.05h31.08C91.74,117.66,81.29,94.42,79.09,88.61ZM48.94,87.3a1.18,1.18,0,0,0,0-.37L44.22,70.11,61,87.3Zm15.44,0a1.44,1.44,0,0,0-.39-1L47.8,69.79,76,87.3Z"/>
  </g>
</svg>
