<svg id="Layer_1" data-name="Layer 1" xmlns="http://www.w3.org/2000/svg" width="200" height="200" viewBox="0 0 200 200">
  <g>
    <path d="M175.33,53.09H80.93L66.25,58.55H36.14A13.83,13.83,0,0,0,22.58,69.66l-8.33,41.45a9.45,9.45,0,0,0,0,3.82L16,123a4.85,4.85,0,0,0,4.74,3.85H35.32a24.12,24.12,0,0,1,48.24,0h41.15a24.12,24.12,0,1,1,48.24,0h7a6,6,0,0,0,6-6V63.69A10.59,10.59,0,0,0,175.33,53.09ZM54.8,83.21,29.54,104.64H25.19L31.51,73.2a6.41,6.41,0,0,1,6.28-5.15h17Zm32.14,0H64.68V68.05H86.94Zm30.89,0H95.57V68.05h22.26Zm30.89,0H126.46V68.05h22.26Zm30.89,0H157.36V68.05h22.25Z"/>
    <path d="M59.44,106.81a20,20,0,1,0,20,20A20.05,20.05,0,0,0,59.44,106.81Zm0,27.34a7.29,7.29,0,1,1,7.29-7.29A7.29,7.29,0,0,1,59.44,134.15Z"/>
    <path d="M148.83,106.81a20,20,0,1,0,20,20A20,20,0,0,0,148.83,106.81Zm0,27.34a7.29,7.29,0,1,1,7.29-7.29A7.29,7.29,0,0,1,148.83,134.15Z"/>
  </g>
</svg>
