<svg id="Layer_1" data-name="Layer 1" xmlns="http://www.w3.org/2000/svg" width="200" height="200" viewBox="0 0 200 200">
  <circle cx="100" cy="100" r="95" style="fill: #fff"/>
  <g>
    <path d="M161.8,60.89H83.1L70.87,65.45H45.76a11.53,11.53,0,0,0-11.31,9.26l-6.94,34.56a7.92,7.92,0,0,0,0,3.18l1.4,6.73a4,4,0,0,0,4,3.22h12.2a20.11,20.11,0,0,1,40.22,0h34.3a20.11,20.11,0,1,1,40.22,0h5.83a5,5,0,0,0,5-5V69.73A8.84,8.84,0,0,0,161.8,60.89ZM61.31,86,40.26,103.87H36.63L41.9,77.66a5.33,5.33,0,0,1,5.24-4.29H61.31Zm26.8,0H69.55V73.37H88.11Zm25.75,0H95.31V73.37h18.55Zm25.76,0H121.06V73.37h18.56Zm25.75,0H146.82V73.37h18.55Z"/>
    <path d="M65.19,105.68A16.72,16.72,0,1,0,81.9,122.4,16.71,16.71,0,0,0,65.19,105.68Zm0,22.79a6.08,6.08,0,1,1,6.08-6.07A6.08,6.08,0,0,1,65.19,128.47Z"/>
    <path d="M139.71,105.68a16.72,16.72,0,1,0,16.71,16.72A16.71,16.71,0,0,0,139.71,105.68Zm0,22.79a6.08,6.08,0,1,1,6.08-6.07A6.08,6.08,0,0,1,139.71,128.47Z"/>
  </g>
</svg>
