<svg id="Layer_1" data-name="Layer 1" xmlns="http://www.w3.org/2000/svg" width="200" height="200" viewBox="0 0 200 200">
  <g>
    <path d="M147.1,158.89l-13.57-4.7,13.57-4.69a11,11,0,0,0-7.17-20.73L100,142.59,60.07,128.77A11,11,0,1,0,52.9,149.5l13.57,4.69-13.57,4.7a11,11,0,1,0,7.17,20.72L100,165.79l39.93,13.82a11,11,0,1,0,7.17-20.72Z"/>
    <path d="M86,13.94v40.3c12.12,13.81,18.28,27.63,18.28,41.18a32.87,32.87,0,0,1-9.39,23,31.71,31.71,0,0,0,54.57-22C149.5,52,86,13.94,86,13.94Zm35.27,99.5a11.08,11.08,0,0,1-11.08-11.07V73.57s22.15,13.29,22.15,28.8A11.07,11.07,0,0,1,121.31,113.44Z"/>
    <path d="M48.09,35V95.42a23.25,23.25,0,1,0,46.49,0C94.58,62.87,48.09,35,48.09,35Zm24.18,72a8.38,8.38,0,0,1-8.38-8.38V76.82s16.77,10.06,16.77,21.8A8.39,8.39,0,0,1,72.27,107Z"/>
  </g>
</svg>
