<svg id="Layer_1" data-name="Layer 1" xmlns="http://www.w3.org/2000/svg" width="200" height="200" viewBox="0 0 200 200">
  <circle cx="100" cy="100" r="95" style="fill: #fff"/>
  <g>
    <path d="M136.62,146.45l-10.55-3.65,10.55-3.65A8.52,8.52,0,0,0,131.05,123L100,133.78,69,123a8.52,8.52,0,1,0-5.57,16.11l10.55,3.65-10.55,3.65A8.53,8.53,0,0,0,69,162.57L100,151.82l31.05,10.75a8.53,8.53,0,0,0,5.57-16.12Z"/>
    <path d="M89.14,33.76V65.09c9.43,10.74,14.22,21.48,14.22,32A25.54,25.54,0,0,1,96.05,115a24.65,24.65,0,0,0,42.43-17.1C138.48,63.36,89.14,33.76,89.14,33.76Zm27.43,77.36a8.61,8.61,0,0,1-8.61-8.61V80.12s17.22,10.33,17.22,22.39A8.62,8.62,0,0,1,116.57,111.12Z"/>
    <path d="M59.64,50.11v47a18.08,18.08,0,0,0,36.15,0C95.79,71.8,59.64,50.11,59.64,50.11Zm18.8,56a6.52,6.52,0,0,1-6.52-6.52V82.65s13,7.82,13,16.94A6.52,6.52,0,0,1,78.44,106.11Z"/>
  </g>
</svg>
