<svg id="Layer_1" data-name="Layer 1" xmlns="http://www.w3.org/2000/svg" width="200" height="200" viewBox="0 0 200 200">
  <circle cx="100" cy="100" r="95" style="fill: #fff"/>
  <g>
    <path d="M73.56,128.61a8.75,8.75,0,0,0,9.82.76l6.19-3.55A8.6,8.6,0,0,0,93.82,117Z"/>
    <path d="M89.57,84l-6.19-3.55a8.75,8.75,0,0,0-9.82.76L93.82,92.83A8.61,8.61,0,0,0,89.57,84Z"/>
    <path d="M117.74,94.78a7.69,7.69,0,0,0,7.42-5.66,7.59,7.59,0,0,0-.77-5.8,7.71,7.71,0,0,0-10.51-2.79A7.61,7.61,0,0,0,111.07,91,7.73,7.73,0,0,0,117.74,94.78Z"/>
    <path d="M134.79,58.8,100,37.69,65.21,58.8,44.72,95.72v52.59H155.28V95.72Zm-5,70.8a14,14,0,0,1-19,5.07,13.81,13.81,0,0,1,.89-24.45l-3-1.72-9.2,5.27A14.76,14.76,0,0,1,92.7,131.2l-6.19,3.55a15,15,0,0,1-20.43-5.43l-1.56-2.69,10.9-6.25h0l27-15.47-5.78-3.31h0L85.82,95.41l-10.4-6h0L64.52,83.2l1.56-2.69a15,15,0,0,1,20.43-5.44l6.19,3.55a14.82,14.82,0,0,1,6.74,17.43l9.2,5.28,3-1.73a13.85,13.85,0,0,1,6.07-26.31,14,14,0,0,1,12.08,6.93,13.79,13.79,0,0,1-5.1,18.91l.07.12-9.88,5.66,9.88,5.66-.07.12h0A13.79,13.79,0,0,1,129.8,129.6Z"/>
    <path d="M121.57,116.07a7.7,7.7,0,0,0-10.5,2.79,7.6,7.6,0,0,0,2.81,10.43,7.65,7.65,0,0,0,3.84,1,7.73,7.73,0,0,0,6.67-3.82A7.62,7.62,0,0,0,121.57,116.07Z"/>
  </g>
</svg>
