<svg id="Layer_1" data-name="Layer 1" xmlns="http://www.w3.org/2000/svg" width="200" height="200" viewBox="0 0 200 200">
  <g>
    <path d="M67.55,144a10.69,10.69,0,0,0,12,.94l7.6-4.38a10.71,10.71,0,0,0,5.22-10.92Z"/>
    <path d="M87.2,88.88l-7.6-4.39a10.69,10.69,0,0,0-12,.94L92.42,99.79a10.72,10.72,0,0,0-.24-4.43A10.61,10.61,0,0,0,87.2,88.88Z"/>
    <path d="M121.78,102.2a9.51,9.51,0,0,0,4.7-1.26,9.44,9.44,0,1,0-4.7,1.26Z"/>
    <path d="M142.7,57.73,100,31.64,57.3,57.73,32.15,103.36v65h135.7v-65Zm-6.12,87.51a17.11,17.11,0,1,1-22.28-24l-3.69-2.13-11.29,6.52A18.34,18.34,0,0,1,91,147.21l-7.6,4.39a18.37,18.37,0,0,1-25.07-6.72l-1.92-3.32,13.38-7.73h0l33.1-19.11-7.09-4.1h0L82.59,103,69.83,95.61h0L56.45,87.88l1.92-3.32a18.38,18.38,0,0,1,25.07-6.72L91,82.23a18.38,18.38,0,0,1,8.28,21.54l11.29,6.52,3.69-2.13a17.11,17.11,0,1,1,16-.58l.08.14-12.12,7,12.12,7-.08.14h0A17.12,17.12,0,0,1,136.58,145.24Z"/>
    <path d="M126.48,128.51A9.44,9.44,0,0,0,117,144.86a9.44,9.44,0,0,0,9.44-16.35Z"/>
  </g>
</svg>
