<svg id="Layer_1" data-name="Layer 1" xmlns="http://www.w3.org/2000/svg" width="200" height="200" viewBox="0 0 200 200">
  <g>
    <path d="M167.66,80l-.15,0a7.45,7.45,0,0,0-.95-.07h-8.18a7.32,7.32,0,0,0-6,3.22,6,6,0,0,0-.37.6,7.31,7.31,0,0,0-.88,3.48v25.6a7.31,7.31,0,0,0,.88,3.48,7.86,7.86,0,0,0,.68,1,6.92,6.92,0,0,0,1.1,1.13,7.22,7.22,0,0,0,4.64,1.67h8.18a7.45,7.45,0,0,0,.95-.07l.15,0a7.29,7.29,0,0,0,6.2-7.21V87.2A7.29,7.29,0,0,0,167.66,80Z"/>
    <path d="M158.38,126a13.23,13.23,0,0,1-13.22-13.22V87.2A13.23,13.23,0,0,1,158.38,74h8.18a13,13,0,0,1,2,.16V40A17.24,17.24,0,0,0,151.3,22.8H43.38A17.24,17.24,0,0,0,26.14,40V177.2h142.4V125.86a13,13,0,0,1-2,.16Zm-49.6-18.23,20.57-4.94a3.81,3.81,0,0,1,1.78,7.4l-12.78,3.07,10.2,5.89a3.8,3.8,0,1,1-3.8,6.59l-10.21-5.89,3.74,12.6a3.81,3.81,0,0,1-2.57,4.72,3.72,3.72,0,0,1-1.08.16,3.81,3.81,0,0,1-3.65-2.72l-6-20.29-13.5-7.79v15.59L106,137.52a3.81,3.81,0,0,1-5.52,5.24l-9-9.53V145a3.8,3.8,0,0,1-7.6,0V133.23l-9.05,9.53a3.81,3.81,0,1,1-5.52-5.24l14.57-15.34V106.59l-13.5,7.79-6,20.29a3.8,3.8,0,0,1-3.65,2.72,3.72,3.72,0,0,1-1.08-.16,3.79,3.79,0,0,1-2.56-4.72l3.73-12.6L50.6,125.8a3.87,3.87,0,0,1-1.9.51,3.81,3.81,0,0,1-1.91-7.1L57,113.32l-12.77-3.07a3.8,3.8,0,0,1,1.77-7.4l20.57,4.94L80.07,100,66.56,92.21,46,97.15a3.92,3.92,0,0,1-.89.1,3.8,3.8,0,0,1-.88-7.5L57,86.68,46.79,80.79A3.81,3.81,0,0,1,50.6,74.2l10.2,5.89-3.73-12.6a3.8,3.8,0,0,1,7.29-2.16l6,20.29,13.5,7.79V77.82L69.3,62.48a3.81,3.81,0,0,1,5.52-5.24l9.05,9.53V55a3.8,3.8,0,1,1,7.6,0V66.77l9-9.53A3.81,3.81,0,0,1,106,62.48L91.47,77.82V93.41L105,85.62l6-20.29a3.81,3.81,0,0,1,7.3,2.16l-3.74,12.6,10.21-5.89a3.8,3.8,0,0,1,3.8,6.59l-10.2,5.89,12.78,3.07a3.8,3.8,0,0,1-.89,7.5,3.92,3.92,0,0,1-.89-.1l-20.57-4.94L95.28,100Z"/>
  </g>
</svg>
