<svg id="Layer_1" data-name="Layer 1" xmlns="http://www.w3.org/2000/svg" width="200" height="200" viewBox="0 0 200 200">
  <circle cx="100" cy="100" r="95" style="fill: #fff"/>
  <g>
    <path d="M143,87.28l-.09,0a6,6,0,0,0-.61,0h-5.2a4.63,4.63,0,0,0-3,1.06,4.48,4.48,0,0,0-.9,1c-.08.12-.16.25-.23.38a4.59,4.59,0,0,0-.56,2.21v16.28a4.59,4.59,0,0,0,.56,2.21,4.88,4.88,0,0,0,.43.65,4.34,4.34,0,0,0,.7.72,4.63,4.63,0,0,0,3,1.06h5.2a6,6,0,0,0,.61,0l.09,0a4.64,4.64,0,0,0,3.95-4.58V91.86A4.64,4.64,0,0,0,143,87.28Z"/>
    <path d="M137.12,116.55a8.42,8.42,0,0,1-8.4-8.41V91.86a8.42,8.42,0,0,1,8.4-8.41h5.2a8.94,8.94,0,0,1,1.27.11V61.87a11,11,0,0,0-11-11H64a11,11,0,0,0-11,11v87.22h90.56V116.44a8.94,8.94,0,0,1-1.27.11ZM105.58,105l13.08-3.14a2.42,2.42,0,1,1,1.13,4.7l-8.12,2,6.48,3.74a2.42,2.42,0,0,1-1.21,4.52,2.39,2.39,0,0,1-1.2-.33l-6.49-3.74,2.37,8a2.42,2.42,0,0,1-1.63,3,2.74,2.74,0,0,1-.69.1A2.42,2.42,0,0,1,107,122l-3.82-12.9-8.58-5v9.91l9.26,9.76a2.42,2.42,0,0,1-3.51,3.33l-5.75-6.06v7.49a2.42,2.42,0,1,1-4.84,0v-7.49L84,127.19a2.42,2.42,0,0,1-3.51-3.33l9.26-9.76v-9.91l-8.58,5L77.34,122A2.42,2.42,0,0,1,75,123.78a2.74,2.74,0,0,1-.69-.1,2.42,2.42,0,0,1-1.63-3l2.37-8-6.48,3.74a2.41,2.41,0,0,1-3.31-.88,2.42,2.42,0,0,1,.89-3.31l6.48-3.74-8.12-2a2.42,2.42,0,1,1,1.13-4.7L78.74,105l8.58-5-8.58-5L65.66,98.18a2.22,2.22,0,0,1-.57.07,2.42,2.42,0,0,1-.56-4.77l8.12-2-6.48-3.74a2.42,2.42,0,1,1,2.42-4.19l6.48,3.74-2.37-8A2.42,2.42,0,1,1,77.34,78l3.82,12.89,8.58,5V85.9l-9.26-9.76A2.42,2.42,0,0,1,84,72.81l5.75,6.06V71.38a2.42,2.42,0,0,1,4.84,0v7.49l5.75-6.06a2.42,2.42,0,0,1,3.51,3.33L94.58,85.9v9.91l8.58-5L107,78a2.42,2.42,0,1,1,4.64,1.37l-2.37,8,6.49-3.74a2.42,2.42,0,1,1,2.41,4.19l-6.48,3.74,8.12,2a2.42,2.42,0,0,1-.56,4.77,2.22,2.22,0,0,1-.57-.07L105.58,95,97,100Z"/>
  </g>
</svg>
