<svg id="Layer_1" data-name="Layer 1" xmlns="http://www.w3.org/2000/svg" width="200" height="200" viewBox="0 0 200 200">
  <g>
    <path d="M115.55,72.06q-5.76-4.77-16.82-4.77h-20v36.82h20q11.05,0,16.82-4.78t5.76-13.56Q121.31,76.85,115.55,72.06Z"/>
    <path d="M147.84,20.63H52.16A19.61,19.61,0,0,0,32.54,40.24V159.76a19.61,19.61,0,0,0,19.62,19.61h95.68a19.61,19.61,0,0,0,19.62-19.61V40.24A19.61,19.61,0,0,0,147.84,20.63Zm-7.29,85.52a35.7,35.7,0,0,1-16,13.33q-10.38,4.62-24.46,4.62H78.74v29.24H54.19v-106H100.1q14.09,0,24.46,4.7a36.35,36.35,0,0,1,16,13.33q5.59,8.64,5.6,20.45A36.89,36.89,0,0,1,140.55,106.15Z"/>
  </g>
</svg>
