<svg id="Layer_1" data-name="Layer 1" xmlns="http://www.w3.org/2000/svg" width="200" height="200" viewBox="0 0 200 200">
  <circle cx="100" cy="100" r="95" style="fill: #fff"/>
  <g>
    <path d="M111.39,79.53Q107.18,76,99.07,76H84.42v27H99.07q8.1,0,12.32-3.5t4.22-9.93Q115.61,83,111.39,79.53Z"/>
    <path d="M135.06,41.84H64.94A14.38,14.38,0,0,0,50.57,56.22v87.56a14.38,14.38,0,0,0,14.37,14.38h70.12a14.38,14.38,0,0,0,14.37-14.38V56.22A14.38,14.38,0,0,0,135.06,41.84Zm-5.35,62.67A26.22,26.22,0,0,1,118,114.28a43.92,43.92,0,0,1-17.93,3.38H84.42v21.43h-18V61.38h33.63A43.26,43.26,0,0,1,118,64.82a25.72,25.72,0,0,1,15.82,24.76A27,27,0,0,1,129.71,104.51Z"/>
  </g>
</svg>
