<svg id="Layer_1" data-name="Layer 1" xmlns="http://www.w3.org/2000/svg" width="200" height="200" viewBox="0 0 200 200">
  <g>
    <rect x="67.72" y="47.43" width="31.71" height="62.66" rx="7.9"/>
    <path d="M173.38,36.9h-8a3.59,3.59,0,0,0-2.63-6H130a16,16,0,0,0-16,16V161.72H99.43V111.79H20.55a3.09,3.09,0,0,0-3.09,3.09v6.66a32.6,32.6,0,0,0,32.6,32.6h16.7v15H99.43v0h50v-7.41H121.25V46.81A8.75,8.75,0,0,1,130,38.06h13.83a9.14,9.14,0,0,0-4.71,8v1.71h43.42V46.06A9.16,9.16,0,0,0,173.38,36.9Z"/>
    <path d="M145.17,57A3.61,3.61,0,1,0,138,57v.72a3.61,3.61,0,0,0,7.21,0Z"/>
    <path d="M145.17,75.26a3.61,3.61,0,0,0-7.21,0v.86a3.61,3.61,0,0,0,7.21,0Z"/>
    <path d="M145.17,66.29a3.61,3.61,0,1,0-7.21,0v.42a3.61,3.61,0,1,0,7.21,0Z"/>
    <path d="M145.17,107.32a3.61,3.61,0,1,0-7.21,0v.85a3.61,3.61,0,0,0,7.21,0Z"/>
    <path d="M145.17,88.94a3.61,3.61,0,1,0-7.21,0v.85a3.61,3.61,0,1,0,7.21,0Z"/>
    <path d="M145.17,98.34a3.61,3.61,0,0,0-7.21,0v.43a3.61,3.61,0,0,0,7.21,0Z"/>
    <path d="M141.57,117.39A3.61,3.61,0,0,0,138,121v.72a3.61,3.61,0,1,0,7.21,0V121A3.6,3.6,0,0,0,141.57,117.39Z"/>
    <path d="M153.8,53.41A3.61,3.61,0,0,0,150.19,57v.72a3.61,3.61,0,0,0,7.21,0V57A3.61,3.61,0,0,0,153.8,53.41Z"/>
    <path d="M153.8,68.32a3.61,3.61,0,0,0-3.61,3.6v1.9a3.61,3.61,0,0,0,7.21,0v-1.9A3.6,3.6,0,0,0,153.8,68.32Z"/>
    <path d="M153.8,84.4a3.61,3.61,0,0,0-3.61,3.6v1a3.61,3.61,0,0,0,7.21,0V88A3.6,3.6,0,0,0,153.8,84.4Z"/>
    <path d="M153.8,109.94a3.61,3.61,0,0,0-3.61,3.6v1.89a3.61,3.61,0,0,0,7.21,0v-1.89A3.6,3.6,0,0,0,153.8,109.94Z"/>
    <path d="M153.8,94.8a3.61,3.61,0,0,0-3.61,3.61v.94a3.61,3.61,0,1,0,7.21,0v-.94A3.61,3.61,0,0,0,153.8,94.8Z"/>
    <path d="M153.8,126a3.61,3.61,0,0,0-3.61,3.61v.94a3.61,3.61,0,1,0,7.21,0v-.94A3.61,3.61,0,0,0,153.8,126Z"/>
    <path d="M153.8,136.42a3.61,3.61,0,0,0-3.61,3.6v.72a3.61,3.61,0,1,0,7.21,0V140A3.6,3.6,0,0,0,153.8,136.42Z"/>
    <path d="M165.49,53.41A3.61,3.61,0,0,0,161.88,57v.72a3.61,3.61,0,0,0,7.21,0V57A3.61,3.61,0,0,0,165.49,53.41Z"/>
    <path d="M165.49,64.26a3.61,3.61,0,0,0-3.61,3.61v.5a3.61,3.61,0,1,0,7.21,0v-.5A3.61,3.61,0,0,0,165.49,64.26Z"/>
    <path d="M165.49,74.9a3.61,3.61,0,0,0-3.61,3.6v1a3.61,3.61,0,1,0,7.21,0v-1A3.6,3.6,0,0,0,165.49,74.9Z"/>
    <path d="M165.49,112.87a3.61,3.61,0,0,0-3.61,3.61v1a3.61,3.61,0,1,0,7.21,0v-1A3.61,3.61,0,0,0,165.49,112.87Z"/>
    <path d="M165.49,102.24a3.61,3.61,0,0,0-3.61,3.6v.51a3.61,3.61,0,0,0,7.21,0v-.51A3.6,3.6,0,0,0,165.49,102.24Z"/>
    <path d="M165.49,91.1a3.61,3.61,0,0,0-3.61,3.6v1a3.61,3.61,0,0,0,7.21,0v-1A3.6,3.6,0,0,0,165.49,91.1Z"/>
    <path d="M165.49,129.08a3.61,3.61,0,0,0-3.61,3.6v.72a3.61,3.61,0,1,0,7.21,0v-.72A3.6,3.6,0,0,0,165.49,129.08Z"/>
    <path d="M177.18,53.41A3.61,3.61,0,0,0,173.57,57v.72a3.61,3.61,0,0,0,7.21,0V57A3.61,3.61,0,0,0,177.18,53.41Z"/>
    <path d="M177.18,74.24a3.61,3.61,0,0,0-3.61,3.61v.5a3.61,3.61,0,1,0,7.21,0v-.5A3.61,3.61,0,0,0,177.18,74.24Z"/>
    <path d="M177.18,84.8a3.61,3.61,0,0,0-3.61,3.61v1a3.61,3.61,0,1,0,7.21,0v-1A3.61,3.61,0,0,0,177.18,84.8Z"/>
    <path d="M177.18,122a3.61,3.61,0,0,0-3.61,3.6v.5a3.61,3.61,0,1,0,7.21,0v-.5A3.6,3.6,0,0,0,177.18,122Z"/>
    <path d="M177.18,100.89a3.61,3.61,0,0,0-3.61,3.6v1a3.61,3.61,0,0,0,7.21,0v-1A3.6,3.6,0,0,0,177.18,100.89Z"/>
    <path d="M177.18,132.56a3.61,3.61,0,0,0-3.61,3.61v1a3.61,3.61,0,1,0,7.21,0v-1A3.61,3.61,0,0,0,177.18,132.56Z"/>
    <path d="M177.18,148.65a3.61,3.61,0,0,0-3.61,3.6V153a3.61,3.61,0,0,0,7.21,0v-.73A3.6,3.6,0,0,0,177.18,148.65Z"/>
  </g>
</svg>
