<svg id="Layer_1" data-name="Layer 1" xmlns="http://www.w3.org/2000/svg" width="200" height="200" viewBox="0 0 200 200">
  <circle cx="100" cy="100" r="95" style="fill: #fff"/>
  <g>
    <rect x="71.44" y="61.63" width="23.14" height="45.74" rx="5.77"/>
    <path d="M148.56,53.94h-5.82a2.59,2.59,0,0,0,.71-1.79,2.63,2.63,0,0,0-2.63-2.63H116.9a11.66,11.66,0,0,0-11.65,11.65v83.89H94.58V108.61H37a2.25,2.25,0,0,0-2.25,2.25v4.86a23.79,23.79,0,0,0,23.8,23.8H70.73v11H94.58v0h36.49v-5.4H110.51V61.17a6.39,6.39,0,0,1,6.39-6.38H127a6.67,6.67,0,0,0-3.44,5.84v1.24h31.7V60.63A6.68,6.68,0,0,0,148.56,53.94Z"/>
    <path d="M128,68.62a2.63,2.63,0,1,0-5.26,0v.53a2.63,2.63,0,1,0,5.26,0Z"/>
    <path d="M128,81.94a2.63,2.63,0,0,0-5.26,0v.63a2.63,2.63,0,0,0,5.26,0Z"/>
    <path d="M128,75.39a2.63,2.63,0,0,0-5.26,0v.31a2.63,2.63,0,1,0,5.26,0Z"/>
    <path d="M128,105.34a2.63,2.63,0,1,0-5.26,0V106a2.63,2.63,0,1,0,5.26,0Z"/>
    <path d="M128,91.93a2.63,2.63,0,1,0-5.26,0v.62a2.63,2.63,0,0,0,5.26,0Z"/>
    <path d="M128,98.79a2.63,2.63,0,1,0-5.26,0v.31a2.63,2.63,0,0,0,5.26,0Z"/>
    <path d="M125.34,112.69a2.63,2.63,0,0,0-2.63,2.63v.53a2.63,2.63,0,1,0,5.26,0v-.53A2.63,2.63,0,0,0,125.34,112.69Z"/>
    <path d="M134.27,66a2.63,2.63,0,0,0-2.63,2.63v.53a2.63,2.63,0,1,0,5.26,0v-.53A2.63,2.63,0,0,0,134.27,66Z"/>
    <path d="M134.27,76.88a2.63,2.63,0,0,0-2.63,2.63v1.38a2.63,2.63,0,1,0,5.26,0V79.51A2.63,2.63,0,0,0,134.27,76.88Z"/>
    <path d="M134.27,88.61a2.63,2.63,0,0,0-2.63,2.63v.69a2.63,2.63,0,1,0,5.26,0v-.69A2.63,2.63,0,0,0,134.27,88.61Z"/>
    <path d="M134.27,107.25a2.63,2.63,0,0,0-2.63,2.63v1.38a2.63,2.63,0,1,0,5.26,0v-1.38A2.63,2.63,0,0,0,134.27,107.25Z"/>
    <path d="M134.27,96.21a2.63,2.63,0,0,0-2.63,2.63v.69a2.63,2.63,0,1,0,5.26,0v-.69A2.63,2.63,0,0,0,134.27,96.21Z"/>
    <path d="M134.27,119a2.63,2.63,0,0,0-2.63,2.63v.69a2.63,2.63,0,1,0,5.26,0v-.69A2.63,2.63,0,0,0,134.27,119Z"/>
    <path d="M134.27,126.58a2.63,2.63,0,0,0-2.63,2.63v.53a2.63,2.63,0,1,0,5.26,0v-.53A2.63,2.63,0,0,0,134.27,126.58Z"/>
    <path d="M142.8,66a2.63,2.63,0,0,0-2.63,2.63v.53a2.63,2.63,0,1,0,5.26,0v-.53A2.63,2.63,0,0,0,142.8,66Z"/>
    <path d="M142.8,73.91a2.63,2.63,0,0,0-2.63,2.63v.37a2.63,2.63,0,1,0,5.26,0v-.37A2.63,2.63,0,0,0,142.8,73.91Z"/>
    <path d="M142.8,81.68a2.63,2.63,0,0,0-2.63,2.63v.74a2.63,2.63,0,1,0,5.26,0v-.74A2.63,2.63,0,0,0,142.8,81.68Z"/>
    <path d="M142.8,109.4a2.63,2.63,0,0,0-2.63,2.63v.74a2.63,2.63,0,1,0,5.26,0V112A2.63,2.63,0,0,0,142.8,109.4Z"/>
    <path d="M142.8,101.64a2.63,2.63,0,0,0-2.63,2.63v.37a2.63,2.63,0,1,0,5.26,0v-.37A2.63,2.63,0,0,0,142.8,101.64Z"/>
    <path d="M142.8,93.5a2.63,2.63,0,0,0-2.63,2.63v.74a2.63,2.63,0,1,0,5.26,0v-.74A2.63,2.63,0,0,0,142.8,93.5Z"/>
    <path d="M142.8,121.23a2.63,2.63,0,0,0-2.63,2.63v.52a2.63,2.63,0,1,0,5.26,0v-.52A2.63,2.63,0,0,0,142.8,121.23Z"/>
    <path d="M151.33,66a2.63,2.63,0,0,0-2.63,2.63v.53a2.63,2.63,0,1,0,5.26,0v-.53A2.63,2.63,0,0,0,151.33,66Z"/>
    <path d="M151.33,81.2a2.63,2.63,0,0,0-2.63,2.63v.37a2.63,2.63,0,1,0,5.26,0v-.37A2.63,2.63,0,0,0,151.33,81.2Z"/>
    <path d="M151.33,88.91a2.63,2.63,0,0,0-2.63,2.63v.73a2.63,2.63,0,1,0,5.26,0v-.73A2.62,2.62,0,0,0,151.33,88.91Z"/>
    <path d="M151.33,116.06a2.63,2.63,0,0,0-2.63,2.63v.37a2.63,2.63,0,1,0,5.26,0v-.37A2.63,2.63,0,0,0,151.33,116.06Z"/>
    <path d="M151.33,100.65a2.63,2.63,0,0,0-2.63,2.63V104a2.63,2.63,0,1,0,5.26,0v-.73A2.63,2.63,0,0,0,151.33,100.65Z"/>
    <path d="M151.33,123.77a2.63,2.63,0,0,0-2.63,2.63v.73a2.63,2.63,0,1,0,5.26,0v-.73A2.63,2.63,0,0,0,151.33,123.77Z"/>
    <path d="M151.33,135.51a2.63,2.63,0,0,0-2.63,2.63v.53a2.63,2.63,0,1,0,5.26,0v-.53A2.63,2.63,0,0,0,151.33,135.51Z"/>
  </g>
</svg>
