<svg id="Layer_1" data-name="Layer 1" xmlns="http://www.w3.org/2000/svg" width="200" height="200" viewBox="0 0 200 200">
  <circle cx="100" cy="100" r="95" style="fill: #fff"/>
  <g>
    <polygon points="37.33 113.32 56.62 81.72 52.42 74.6 57.67 74.6 45.88 54.62 34.09 74.6 39.34 74.6 29.2 91.78 36.18 91.78 23.47 113.32 37.33 113.32"/>
    <polygon points="147.58 85.15 145.2 89.19 166.36 123.87 176.53 123.87 163.82 102.33 170.8 102.33 160.66 85.15 165.91 85.15 154.12 65.17 142.53 84.82 142.73 85.15 147.58 85.15"/>
    <polygon points="141.3 70.58 135.31 70.58 130.9 77.8 130.88 77.78 130.87 77.8 126.45 70.58 120.47 70.58 127.87 82.71 93.09 139.69 113.58 139.69 130.26 112.35 146.94 139.69 168.67 139.69 133.89 82.71 141.3 70.58"/>
    <polygon points="84.2 111.12 58.33 121.08 58.64 121.94 58.33 121.08 58.71 122.13 63.54 135.62 74.61 131.74 81.63 155.05 86.19 153.66 79.12 130.16 88.48 126.87 87.36 127.27 88.93 126.72 88.93 126.72 88.93 126.72 84.2 111.12"/>
    <polygon points="95.09 92.31 98.5 86.72 108.29 102.75 119.15 84.96 102.14 57.08 109.54 44.95 103.55 44.95 99.14 52.17 99.13 52.15 99.11 52.17 94.7 44.95 88.71 44.95 96.11 57.08 84.85 75.53 95.09 92.31"/>
    <polygon points="101.21 114.36 75.41 72.1 82.82 59.97 76.83 59.97 72.42 67.19 72.4 67.16 72.39 67.19 67.97 59.97 61.98 59.97 69.39 72.1 34.61 129.07 55.1 129.07 56.42 126.9 54.79 122.35 53.55 118.89 56.98 117.56 63.7 114.98 71.78 101.74 76.78 109.94 82.85 107.6 86.63 106.15 87.8 110.03 92.53 125.63 93.13 127.6 101.21 114.36"/>
  </g>
</svg>
