<svg id="Layer_1" data-name="Layer 1" xmlns="http://www.w3.org/2000/svg" width="200" height="200" viewBox="0 0 200 200">
  <g>
    <polygon points="27.43 115.42 49.77 78.83 44.9 70.59 50.99 70.59 37.33 47.45 23.67 70.59 29.76 70.59 18.02 90.48 26.1 90.48 11.38 115.42 27.43 115.42"/>
    <polygon points="155.1 82.81 152.34 87.49 176.84 127.64 188.62 127.64 173.9 102.7 181.98 102.7 170.24 82.81 176.33 82.81 162.67 59.67 149.24 82.42 149.48 82.81 155.1 82.81"/>
    <polygon points="147.82 65.94 140.88 65.94 135.78 74.3 135.76 74.27 135.74 74.3 130.63 65.94 123.7 65.94 132.27 79.98 92 145.96 115.72 145.96 135.04 114.3 154.36 145.96 179.51 145.96 139.25 79.98 147.82 65.94"/>
    <polygon points="81.71 112.87 51.75 124.41 52.1 125.4 51.75 124.41 52.18 125.63 57.78 141.24 70.61 136.75 78.72 163.75 84 162.14 75.82 134.92 86.66 131.12 85.36 131.57 87.18 130.94 87.18 130.94 87.18 130.94 81.71 112.87"/>
    <polygon points="94.32 91.09 98.27 84.62 109.6 103.19 122.18 82.58 102.48 50.3 111.05 36.25 104.11 36.25 99.01 44.62 98.99 44.59 98.97 44.62 93.86 36.25 86.93 36.25 95.5 50.3 82.46 71.66 94.32 91.09"/>
    <polygon points="101.4 116.63 71.53 67.69 80.1 53.65 73.17 53.65 68.06 62.01 68.04 61.98 68.02 62.01 62.92 53.65 55.98 53.65 64.55 67.69 24.29 133.66 48 133.66 49.54 131.15 47.65 125.88 46.21 121.87 50.18 120.34 57.97 117.34 67.32 102.01 73.12 111.51 80.14 108.81 84.52 107.12 85.88 111.61 91.35 129.67 92.04 131.96 101.4 116.63"/>
  </g>
</svg>
